<svg id="visual" viewBox="0 0 900 600" width="900" height="600" xmlns="http://www.w3.org/2000/svg" xmlns:xlink="http://www.w3.org/1999/xlink" version="1.1"><rect x="0" y="0" width="900" height="600" fill="#FFFFFF"></rect><path d="M0 457L21.5 457.3C43 457.7 86 458.3 128.8 461C171.7 463.7 214.3 468.3 257.2 470.8C300 473.3 343 473.7 385.8 472.2C428.7 470.7 471.3 467.3 514.2 466.8C557 466.3 600 468.7 642.8 470.8C685.7 473 728.3 475 771.2 472.8C814 470.7 857 464.3 878.5 461.2L900 458L900 601L878.5 601C857 601 814 601 771.2 601C728.3 601 685.7 601 642.8 601C600 601 557 601 514.2 601C471.3 601 428.7 601 385.8 601C343 601 300 601 257.2 601C214.3 601 171.7 601 128.8 601C86 601 43 601 21.5 601L0 601Z" fill="#95e1d3"></path><path d="M0 507L21.5 510C43 513 86 519 128.8 517.5C171.7 516 214.3 507 257.2 506.7C300 506.3 343 514.7 385.8 513.8C428.7 513 471.3 503 514.2 495.5C557 488 600 483 642.8 485C685.7 487 728.3 496 771.2 503.3C814 510.7 857 516.3 878.5 519.2L900 522L900 601L878.5 601C857 601 814 601 771.2 601C728.3 601 685.7 601 642.8 601C600 601 557 601 514.2 601C471.3 601 428.7 601 385.8 601C343 601 300 601 257.2 601C214.3 601 171.7 601 128.8 601C86 601 43 601 21.5 601L0 601Z" fill="#a9e9d0"></path><path d="M0 503L21.5 504.8C43 506.7 86 510.3 128.8 517.5C171.7 524.7 214.3 535.3 257.2 540.7C300 546 343 546 385.8 541.8C428.7 537.7 471.3 529.3 514.2 522C557 514.7 600 508.3 642.8 510.5C685.7 512.7 728.3 523.3 771.2 525.2C814 527 857 520 878.5 516.5L900 513L900 601L878.5 601C857 601 814 601 771.2 601C728.3 601 685.7 601 642.8 601C600 601 557 601 514.2 601C471.3 601 428.7 601 385.8 601C343 601 300 601 257.2 601C214.3 601 171.7 601 128.8 601C86 601 43 601 21.5 601L0 601Z" fill="#bef1cf"></path><path d="M0 543L21.5 542.7C43 542.3 86 541.7 128.8 543.8C171.7 546 214.3 551 257.2 553C300 555 343 554 385.8 554C428.7 554 471.3 555 514.2 556.3C557 557.7 600 559.3 642.8 555.3C685.7 551.3 728.3 541.7 771.2 540C814 538.3 857 544.7 878.5 547.8L900 551L900 601L878.5 601C857 601 814 601 771.2 601C728.3 601 685.7 601 642.8 601C600 601 557 601 514.2 601C471.3 601 428.7 601 385.8 601C343 601 300 601 257.2 601C214.3 601 171.7 601 128.8 601C86 601 43 601 21.5 601L0 601Z" fill="#d4f8cf"></path><path d="M0 559L21.5 558.7C43 558.3 86 557.7 128.8 557.3C171.7 557 214.3 557 257.2 559.3C300 561.7 343 566.3 385.8 569.2C428.7 572 471.3 573 514.2 575C557 577 600 580 642.8 576.8C685.7 573.7 728.3 564.3 771.2 560C814 555.7 857 556.3 878.5 556.7L900 557L900 601L878.5 601C857 601 814 601 771.2 601C728.3 601 685.7 601 642.8 601C600 601 557 601 514.2 601C471.3 601 428.7 601 385.8 601C343 601 300 601 257.2 601C214.3 601 171.7 601 128.8 601C86 601 43 601 21.5 601L0 601Z" fill="#eaffd0"></path></svg>