<svg id="visual" viewBox="0 0 900 600" width="900" height="600" xmlns="http://www.w3.org/2000/svg" xmlns:xlink="http://www.w3.org/1999/xlink" version="1.1"><rect x="0" y="0" width="900" height="600" fill="#FFFFFF"></rect><path d="M0 164L21.5 165.5C43 167 86 170 128.8 169.7C171.7 169.3 214.3 165.7 257.2 158.3C300 151 343 140 385.8 138.2C428.7 136.3 471.3 143.7 514.2 150.5C557 157.3 600 163.7 642.8 170.5C685.7 177.3 728.3 184.7 771.2 178.8C814 173 857 154 878.5 144.5L900 135L900 0L878.5 0C857 0 814 0 771.2 0C728.3 0 685.7 0 642.8 0C600 0 557 0 514.2 0C471.3 0 428.7 0 385.8 0C343 0 300 0 257.2 0C214.3 0 171.7 0 128.8 0C86 0 43 0 21.5 0L0 0Z" fill="#eaffd0"></path><path d="M0 151L21.5 151.5C43 152 86 153 128.8 147C171.7 141 214.3 128 257.2 123.7C300 119.3 343 123.7 385.8 131.8C428.7 140 471.3 152 514.2 156.3C557 160.7 600 157.3 642.8 156.2C685.7 155 728.3 156 771.2 154.7C814 153.3 857 149.7 878.5 147.8L900 146L900 0L878.5 0C857 0 814 0 771.2 0C728.3 0 685.7 0 642.8 0C600 0 557 0 514.2 0C471.3 0 428.7 0 385.8 0C343 0 300 0 257.2 0C214.3 0 171.7 0 128.8 0C86 0 43 0 21.5 0L0 0Z" fill="#d4f8cf"></path><path d="M0 110L21.5 105.8C43 101.7 86 93.3 128.8 94.7C171.7 96 214.3 107 257.2 113C300 119 343 120 385.8 111.8C428.7 103.7 471.3 86.3 514.2 86.8C557 87.3 600 105.7 642.8 113.7C685.7 121.7 728.3 119.3 771.2 119.8C814 120.3 857 123.7 878.5 125.3L900 127L900 0L878.5 0C857 0 814 0 771.2 0C728.3 0 685.7 0 642.8 0C600 0 557 0 514.2 0C471.3 0 428.7 0 385.8 0C343 0 300 0 257.2 0C214.3 0 171.7 0 128.8 0C86 0 43 0 21.5 0L0 0Z" fill="#bef1cf"></path><path d="M0 70L21.5 70.7C43 71.3 86 72.7 128.8 74.8C171.7 77 214.3 80 257.2 83C300 86 343 89 385.8 86.2C428.7 83.3 471.3 74.7 514.2 67.7C557 60.7 600 55.3 642.8 58.8C685.7 62.3 728.3 74.7 771.2 82C814 89.3 857 91.7 878.5 92.8L900 94L900 0L878.5 0C857 0 814 0 771.2 0C728.3 0 685.7 0 642.8 0C600 0 557 0 514.2 0C471.3 0 428.7 0 385.8 0C343 0 300 0 257.2 0C214.3 0 171.7 0 128.8 0C86 0 43 0 21.5 0L0 0Z" fill="#a9e9d0"></path><path d="M0 50L21.5 46.8C43 43.7 86 37.3 128.8 32.8C171.7 28.3 214.3 25.7 257.2 27C300 28.3 343 33.7 385.8 34.8C428.7 36 471.3 33 514.2 31.3C557 29.7 600 29.3 642.8 33.8C685.7 38.3 728.3 47.7 771.2 50C814 52.3 857 47.7 878.5 45.3L900 43L900 0L878.5 0C857 0 814 0 771.2 0C728.3 0 685.7 0 642.8 0C600 0 557 0 514.2 0C471.3 0 428.7 0 385.8 0C343 0 300 0 257.2 0C214.3 0 171.7 0 128.8 0C86 0 43 0 21.5 0L0 0Z" fill="#95e1d3"></path></svg>